<svg id="filled_outline" height="512" viewBox="0 0 512 512" width="512" xmlns="http://www.w3.org/2000/svg" data-name="filled outline"><rect fill="#2b93cb" height="400" rx="8" width="336" x="24" y="88"/><g fill="#eeba2b"><path d="m104 112v-19.71853a8 8 0 0 1 3.5624-6.6564l20.4376-13.62507h24v-20a8 8 0 0 1 3.2-6.4l26.66665-20a8 8 0 0 1 4.8-1.6h10.66666a8 8 0 0 1 4.8 1.6l26.66669 20a8 8 0 0 1 3.2 6.4v20h24l20.4376 13.62507a8 8 0 0 1 3.5624 6.6564v19.71853a8 8 0 0 1 -8 8h-160a8 8 0 0 1 -8-8z"/><rect height="48" rx="8" width="48" x="64" y="320"/><rect height="48" rx="8" width="48" x="64" y="408"/></g><path d="m72 160h72a0 0 0 0 1 0 0v48a0 0 0 0 1 0 0h-80a0 0 0 0 1 0 0v-40a8 8 0 0 1 8-8z" fill="#216ead"/><path d="m320 208h-176v-48h168a8 8 0 0 1 8 8z" fill="#195185"/><path d="m64 208h80a0 0 0 0 1 0 0v64a0 0 0 0 1 0 0h-72a8 8 0 0 1 -8-8v-56a0 0 0 0 1 0 0z" fill="#195185"/><path d="m312 272h-168v-64h176v56a8 8 0 0 1 -8 8z" fill="#0a2b63"/><path d="m448 288v-14.71484a16 16 0 0 0 -8.06178-13.89189l-41.23065-23.56037a16 16 0 0 0 -13.88047-.96374l-32.8271 13.13084v104h87.75212a8.24788 8.24788 0 0 0 8.24788-8.24788z" fill="#d6ac89"/><path d="m304 264-8-24 24-8 168 80-16 32z" fill="#216ead"/><path d="m438.05 341.607 6.21831 2.48157a5.54542 5.54542 0 0 1 3.56214 5.50568 47.63367 47.63367 0 0 1 -7.83045 22.40575 47.63327 47.63327 0 0 0 -8 26.42218v89.57782h-80v-102.11146a8 8 0 0 0 -.84458-3.5777l-14.31084-28.62168a8 8 0 0 1 -.84458-3.5777v-54.11146a16 16 0 0 1 16-16 16 16 0 0 1 16 16v24l13.65686 13.65686a8 8 0 0 0 5.65686 2.34314h21.55883a78.71921 78.71921 0 0 1 29.17745 5.607z" fill="#f5c99d"/><path d="m32 96h64v16a16.02085 16.02085 0 0 0 16 16h160a16.02085 16.02085 0 0 0 16-16v-16h64v104h16v-104a16.02085 16.02085 0 0 0 -16-16h-69.92871a15.77035 15.77035 0 0 0 -1.19629-1.03125l-20.4375-13.625a8.00771 8.00771 0 0 0 -4.4375-1.34375h-16v-12a16.04729 16.04729 0 0 0 -6.40625-12.79688l-26.65625-20a16.11552 16.11552 0 0 0 -9.60156-3.20312h-10.67188a16.07518 16.07518 0 0 0 -9.59375 3.20312l-26.65625 19.99219a16.05841 16.05841 0 0 0 -6.41406 12.80469v12h-16a8.00771 8.00771 0 0 0 -4.4375 1.34375l-20.4375 13.625a15.77035 15.77035 0 0 0 -1.19629 1.03125h-69.92871a16.02085 16.02085 0 0 0 -16 16v384a16.02085 16.02085 0 0 0 16 16h280v-16h-280zm80-3.71875 18.42188-12.28125h21.57812a7.99539 7.99539 0 0 0 8-8v-20l26.66406-20h10.67188l26.66406 20v20a7.99539 7.99539 0 0 0 8 8h21.57812l18.42188 12.28125v19.71875l-160 .01562z"/><circle cx="192" cy="56" r="8"/><path d="m130.875 297.85156-19.34424 16.12012a15.79119 15.79119 0 0 0 -7.53076-1.97168h-32a16.02085 16.02085 0 0 0 -16 16v32a16.02085 16.02085 0 0 0 16 16h32a16.02085 16.02085 0 0 0 16-16v-32c0-.07812-.022-.15039-.02295-.228l21.14795-17.62356zm-26.875 62.14844h-32v-32h22.69678l-11.82178 9.85156 10.25 12.29688 10.875-9.0625z"/><path d="m130.875 385.85156-19.34424 16.12012a15.79119 15.79119 0 0 0 -7.53076-1.97168h-32a16.02085 16.02085 0 0 0 -16 16v32a16.02085 16.02085 0 0 0 16 16h32a16.02085 16.02085 0 0 0 16-16v-32c0-.07812-.022-.15039-.02295-.228l21.14795-17.62356zm-26.875 62.14844h-32v-32h22.69678l-11.82178 9.85156 10.25 12.29688 10.875-9.0625z"/><path d="m168 320h16v16h-16z"/><path d="m200 320h104v16h-104z"/><path d="m152 352h56v16h-56z"/><path d="m224 352h80v16h-80z"/><path d="m168 408h16v16h-16z"/><path d="m200 408h112v16h-112z"/><path d="m152 440h56v16h-56z"/><path d="m224 440h88v16h-88z"/><path d="m328 200v-32a16.02085 16.02085 0 0 0 -16-16h-240a16.02085 16.02085 0 0 0 -16 16v96a16.02085 16.02085 0 0 0 16 16h192v-16h-112v-48h120v-16h-120v-32h160v32zm-192 64h-64v-48h64zm-64-64v-32h64v32z"/><path d="m495.5625 309.39844a7.99629 7.99629 0 0 0 -4.125-4.625l-35.4375-16.875v-14.60938a24.0689 24.0689 0 0 0 -12.09375-20.84375l-41.22656-23.55469a23.8759 23.8759 0 0 0 -20.82031-1.45312l-28.709 11.48486-29.71288-14.14892a7.90536 7.90536 0 0 0 -5.96875-.35938l-24 8a7.99315 7.99315 0 0 0 -5.05469 10.11719l8 24a7.994 7.994 0 0 0 4.14844 4.69531l29.96338 14.26758a23.71272 23.71272 0 0 0 -2.52588 10.50586v54.10938a16.14018 16.14018 0 0 0 1.6875 7.15624l14.3125 28.625v110.10938h16v-110.10938a16.14018 16.14018 0 0 0 -1.6875-7.15624l-14.3125-28.625v-54.10938a8 8 0 0 1 16 0v27.3125l26.34375 26.34375 11.3125-11.3125-21.65625-21.65625v-9.53809l64 30.47608v7.95263a39.52769 39.52769 0 0 1 -6.65625 21.98438 55.49954 55.49954 0 0 0 -9.34375 30.85938v97.57812h16v-97.57812a39.52769 39.52769 0 0 1 6.65625-21.98438 55.49954 55.49954 0 0 0 9.34375-30.85938v-.33349l12.5625 5.98193a8.00806 8.00806 0 0 0 10.59375-3.64844l16-32a7.97885 7.97885 0 0 0 .40625-6.17968zm-107.76562-67.10156a8.01072 8.01072 0 0 1 6.94531.48437l41.22656 23.55469a8.0305 8.0305 0 0 1 4.03125 6.95312v6.99024l-67.18066-31.99073zm80.55468 91.10937-93.562-44.56006a23.75878 23.75878 0 0 0 -31.69141-15.0918l-32.58252-15.5122-4.39843-13.17969 13.35156-4.45312 157.72656 75.10937z"/></svg>